<svg width="541px" height="140px" viewBox="0 0 541 140" version="1.1" xmlns="http://www.w3.org/2000/svg" xmlns:xlink="http://www.w3.org/1999/xlink">
    <defs>
        <path d="M110.522435,92.7126851 L110.642795,61.6401155 C110.642795,54.4699221 105.009024,48.8003139 97.8839245,48.8003139 L68.7204292,48.8003139 C62.5896094,48.8003139 57.6185715,53.8028127 57.6185715,59.9726159 C57.6185715,66.1422366 62.5896094,70.9780037 68.7204292,70.9780037 L85.9534697,70.9780037 L85.8331101,90.3782587 C79.3707426,95.0472941 71.0856794,97.3817204 61.806336,97.3817204 C41.2594517,97.3817204 26.6778855,81.7072973 26.6778855,60.363266 C26.6778855,40.1867219 41.4251348,23.6784577 59.9836402,23.6784577 C70.9199963,23.6784577 78.3764625,26.6799935 85.3358793,31.6824922 C87.1585751,33.0163458 89.4785017,34.350382 93.1238932,34.350382 C100.08331,34.350382 105.71708,28.6809564 105.71708,21.6774947 C105.71708,16.6749959 102.900286,13.173265 100.414676,11.3390337 C89.975551,4.00192597 78.3764625,0 60.8122372,0 C25.6836053,0 0,27.1801885 0,60.363266 C0,95.2140258 24.8551898,120.726715 60.9779204,120.726715 C78.3764625,120.726715 92.129613,114.890375 101.57464,109.054218 C107.705459,105.385755 110.522435,100.216525 110.522435,92.7126851 Z" id="path-1"></path>
        <path d="M0,103.161445 C0,109.973977 5.48041099,115.488841 12.2503824,115.488841 C19.0205303,115.488841 24.5009413,109.973977 24.5009413,103.161445 L24.5009413,42.3350427 L74.1475157,107.865378 C77.5325014,112.244762 81.0786601,115.164469 87.0427665,115.164469 L87.8486314,115.164469 C94.7797758,115.164469 100.260363,109.649604 100.260363,102.674887 L100.260363,12.3273957 C100.260363,5.51486417 94.7797758,0 88.0098044,0 C81.2398331,0 75.7594221,5.51486417 75.7594221,12.3273957 L75.7594221,70.8830138 L27.8859269,7.62364023 C24.5009413,3.24407955 20.9547826,0.324372427 14.9906761,0.324372427 L12.4115553,0.324372427 C5.48041099,0.324372427 0,5.8392366 0,12.814132 L0,103.161445 L0,103.161445 Z" id="path-3"></path>
        <path d="M40.2016259,103.161445 C40.2016259,110.136163 44.9720284,115.651205 51.9033493,115.651205 C58.8344936,115.651205 64.3149046,110.136163 64.3149046,103.161445 L64.3149046,70.3962775 L100.743882,20.9243308 C102.355789,18.6533686 103.967695,15.5714752 103.967695,12.1652095 C103.967695,5.35267796 99.4543219,0 91.8784856,0 C86.7204206,0 83.0129124,2.91970712 79.9502727,7.46145401 L52.0643457,47.5257121 L24.6621142,7.78582644 C21.5994745,3.24407955 18.0533158,0.162186213 12.4117319,0.162186213 C5.48041099,0.162186213 0,5.51486417 0,12.1652095 C0,15.7336615 1.28956039,18.6533686 3.06263972,21.0865171 L39.4916174,70.8830138 L40.2016259,103.161445 L40.2016259,103.161445 Z" id="path-5"></path>
    </defs>
    <g id="Page-1" stroke="none" stroke-width="1" fill="none" fill-rule="evenodd">
        <g id="Slice-Copy" transform="translate(10.000000, 11.000000)">
            <g id="Group-3"></g>
            <mask id="mask-2" fill="white">
                <use xlink:href="#path-1"></use>
            </mask>
            <use id="Clip-2" fill="#FFFFFF" xlink:href="#path-1"></use>
        </g>
        <path d="M133,117.842226 C133,125.248663 138.415207,130.186287 145.635482,130.186287 L195.274878,130.186287 C202.987445,130.186287 206.925777,124.425725 206.925777,118.829751 C206.925777,113.069189 203.151542,107.473215 195.274878,107.473215 L157.614576,107.473215 L157.614576,82.4559173 L199.799062,82.4559173 C207.675727,82.4559173 211.778156,76.6953554 211.778156,71.0993811 C211.778156,65.3388192 207.839824,59.7428448 199.799062,59.7428448 L157.614576,59.7428448 L157.614576,35.7130725 L193.798003,35.7130725 C201.51057,35.7130725 205.448903,29.9525106 205.448903,24.3565362 C205.448903,18.5959744 201.674668,13 193.798003,13 L145.79958,13 C137.102429,13 133,19.0897368 133,27.3191109 L133,117.842226 Z" id="Path" fill="#FFFFFF"></path>
        <path d="M221,117.842226 C221,125.248663 226.415207,130.186287 233.635482,130.186287 L283.274878,130.186287 C290.987445,130.186287 294.925777,124.425725 294.925777,118.829751 C294.925777,113.069189 291.151542,107.473215 283.274878,107.473215 L245.614576,107.473215 L245.614576,82.4559173 L286.158383,82.4559173 C294.035047,82.4559173 298.137477,76.6953554 298.137477,71.0993811 C298.137477,65.3388192 294.199144,59.7428448 286.158383,59.7428448 L245.614576,59.7428448 L245.614576,35.7130725 L281.798003,35.7130725 C289.51057,35.7130725 293.448903,29.9525106 293.448903,24.3565362 C293.448903,18.5959744 289.674668,13 281.798003,13 L233.79958,13 C225.102429,13 221,19.0897368 221,27.3191109 L221,117.842226 Z" id="Path-Copy-2" fill="#FFFFFF" transform="translate(259.568738, 71.593144) scale(-1, 1) translate(-259.568738, -71.593144) "></path>
        <g id="Group-6" transform="translate(313.000000, 13.000000)">
            <mask id="mask-4" fill="white">
                <use xlink:href="#path-3"></use>
            </mask>
            <use id="Clip-5" fill="#FFFFFF" xlink:href="#path-3"></use>
        </g>
        <g id="Group-9" transform="translate(421.000000, 13.000000)">
            <mask id="mask-6" fill="white">
                <use xlink:href="#path-5"></use>
            </mask>
            <use id="Clip-8" fill="#FFFFFF" xlink:href="#path-5"></use>
        </g>
    </g>
</svg>
